<svg width="24" height="24" viewBox="0 0 24 24" fill="none" xmlns="http://www.w3.org/2000/svg">
    <path fill-rule="evenodd" clip-rule="evenodd" d="M8.3246 6.99835L6.81697 4.94249C6.71445 4.80268 6.5207 4.76705 6.37514 4.86123C4.40272 6.13751 3.86053 8.08711 4.65185 9.52431C5.51728 11.0961 6.85204 13.0237 8.8994 15.071C10.9468 17.1184 12.8744 18.4532 14.4461 19.3186C15.8833 20.1099 17.8329 19.5677 19.1092 17.5953C19.2034 17.4497 19.1678 17.256 19.028 17.1535L16.9721 15.6458C16.6698 15.4241 16.2688 15.3902 15.9335 15.5578L15.1141 15.9675C14.4171 16.316 13.4617 16.4385 12.5572 15.9732C11.9526 15.6621 11.0206 15.0709 9.96006 14.0104C8.89951 12.9498 8.30835 12.0179 7.99727 11.4132C7.53198 10.5088 7.65441 9.55336 8.0029 8.85638L8.41263 8.03693C8.58029 7.70161 8.54631 7.30067 8.3246 6.99835ZM5.28864 3.18209C2.74813 4.82595 1.44037 7.83823 2.89987 10.489C3.8524 12.2189 5.29923 14.2993 7.48519 16.4853C9.67115 18.6712 11.7515 20.118 13.4815 21.0706C16.1322 22.5301 19.1445 21.2223 20.7884 18.6818C21.4579 17.647 21.2046 16.2696 20.2107 15.5407L18.1548 14.033C17.2479 13.3679 16.0451 13.266 15.0391 13.769L14.2196 14.1787C13.9824 14.2973 13.708 14.3161 13.4722 14.1947C13.0425 13.9737 12.2811 13.503 11.3743 12.5962C10.4675 11.6894 9.99677 10.9279 9.77572 10.4983C9.65439 10.2624 9.67314 9.98803 9.79175 9.75081L10.2015 8.93136C10.7045 7.92539 10.6025 6.72259 9.93741 5.81562L8.42978 3.75976C7.70089 2.76581 6.32346 2.5125 5.28864 3.18209Z" fill="#535763"/>
    </svg>
    